<svg xmlns="http://www.w3.org/2000/svg" width="256" height="256" viewBox="0 0 256 256">
  <defs>
    <linearGradient id="bg" x1="0" y1="0" x2="1" y2="1">
      <stop offset="0%" stop-color="#667eea"/>
      <stop offset="100%" stop-color="#764ba2"/>
    </linearGradient>
    <linearGradient id="flame" x1="0" y1="0" x2="0" y2="1">
      <stop offset="0%" stop-color="#ffd54f"/>
      <stop offset="55%" stop-color="#ff8a3d"/>
      <stop offset="100%" stop-color="#ff3d3d"/>
    </linearGradient>
    <linearGradient id="body" x1="0" y1="0" x2="1" y2="0">
      <stop offset="0%" stop-color="#ffffff"/>
      <stop offset="100%" stop-color="#cdd2dc"/>
    </linearGradient>
    <filter id="shadow" x="-20%" y="-20%" width="140%" height="140%">
      <feDropShadow dx="0" dy="6" stdDeviation="6" flood-opacity="0.4"/>
    </filter>
  </defs>

  <rect width="256" height="256" rx="56" fill="url(#bg)"/>

  <g opacity="0.18" fill="#ffffff" font-family="ui-monospace, Menlo, monospace" font-weight="800">
    <text x="14" y="40" font-size="22">&lt;/&gt;</text>
    <text x="206" y="244" font-size="22">{ }</text>
  </g>

  <g filter="url(#shadow)">
    <path d="M128 8 C 168 32, 188 76, 188 128 L 188 188 L 68 188 L 68 128 C 68 76, 88 32, 128 8 Z"
          fill="url(#body)"/>
    <circle cx="128" cy="98" r="26" fill="#1565c0"/>
    <circle cx="128" cy="98" r="16" fill="#90caf9"/>
    <circle cx="122" cy="92" r="6" fill="#ffffff" opacity="0.95"/>
    <path d="M68 152 L 28 192 L 28 218 L 68 188 Z" fill="#e53935"/>
    <path d="M188 152 L 228 192 L 228 218 L 188 188 Z" fill="#e53935"/>
    <path d="M88 188 L 168 188 L 156 226 L 100 226 Z" fill="url(#flame)"/>
    <path d="M108 226 L 148 226 L 128 252 Z" fill="#ffd54f" opacity="0.95"/>
  </g>
</svg>
